Coordinates
version=1
nRows=14
nColumns=36
inDegrees=yes

Units are S.I. units (second, meters, Newtons, ...)
If the header above contains a line with 'inDegrees', this indicates whether rotational values are in degrees (yes) or radians (no).

endheader
time	pelvis_tilt	pelvis_list	pelvis_rotation	pelvis_tx	pelvis_ty	pelvis_tz	hip_flexion_r	hip_adduction_r	hip_rotation_r	knee_angle_r	knee_angle_r_beta	ankle_angle_r	subtalar_angle_r	mtp_angle_r	hip_flexion_l	hip_adduction_l	hip_rotation_l	knee_angle_l	knee_angle_l_beta	ankle_angle_l	subtalar_angle_l	mtp_angle_l	lumbar_extension	lumbar_bending	lumbar_rotation	arm_flex_r	arm_add_r	arm_rot_r	elbow_flex_r	pro_sup_r	arm_flex_l	arm_add_l	arm_rot_l	elbow_flex_l	pro_sup_l
     29.78333330	     -6.44111256	     -2.54980922	     -1.91274203	      0.87915073	      0.79852474	      0.71882158	     -3.57099818	      4.96981895	      0.08921558	      9.33995942	      0.16301304	     17.03289353	      2.12847962	     -7.49999987	     33.89101327	     -3.52370358	     -1.70340832	      5.19730047	      0.09071001	      9.43445249	      3.00107343	     -7.49999987	      2.83511087	      4.17350993	      6.37866028	     12.30309212	    -19.68204393	      9.62241209	     26.93600836	     89.58147145	      0.77922029	     -8.29250205	      9.17559593	      9.35721867	     92.98731644
     29.80000000	     -6.69748264	     -2.36606639	     -1.86852035	      0.88033900	      0.79675074	      0.71769892	     -4.72444522	      4.59832582	      0.53214727	      9.29536092	      0.16223465	     17.84566429	      2.60890376	     -7.49999987	     34.16467428	     -3.27904742	     -0.76042440	      3.58549872	      0.06257876	     10.02805737	      3.66910568	     -7.49999987	      3.42374008	      4.01772759	      6.61037576	     12.72534245	    -19.79274935	      9.62362653	     27.13116192	     89.63752071	      0.51974877	     -8.18348580	      9.09525504	      9.20336665	     92.98723027
     29.81666670	     -6.56480814	     -1.69657339	     -1.86898647	      0.87982082	      0.79329404	      0.71654263	     -6.28478210	      3.67638496	      0.56725668	      9.20428555	      0.16064509	     18.93331728	      3.50771877	     -7.49999987	     33.92563678	     -2.58152111	     -0.63659131	      3.15262298	      0.05502365	      9.93560999	      3.81773946	     -7.49999987	      3.55451600	      3.13264938	      6.87007624	     13.12271277	    -19.57920357	      9.68318583	     26.99204175	     89.88957380	      0.62908868	     -8.25630984	      8.82854464	      8.57330619	     93.07217582
     29.83333330	     -6.17034919	     -1.10655321	     -1.92826247	      0.87782093	      0.78979735	      0.71518340	     -7.99917594	      2.84272458	      0.60994931	      9.26039979	      0.16162447	     19.93378972	      4.08217125	     -7.49999987	     33.45470972	     -1.90208802	     -0.54807362	      3.74279320	      0.06532406	      9.48491622	      3.36622838	     -7.49999987	      3.24608758	      2.42819930	      7.14122219	     13.68785962	    -19.34533869	      9.58873417	     26.48437040	     90.29835190	      0.94132883	     -8.21002681	      8.25467809	      8.05801142	     93.12766388
     29.85000000	     -6.12575539	     -0.48162610	     -1.98533485	      0.87714736	      0.78797214	      0.71387171	     -9.08094305	      2.02676840	      0.85883873	      9.73381679	      0.16988715	     20.47422172	      3.58611387	     -7.49999987	     33.42987834	     -1.16984568	     -0.77277878	      5.23312137	      0.09133520	      8.68301595	      2.70745224	     -7.49999987	      3.36979240	      1.62852083	      7.31855215	     13.93768349	    -18.98503718	      9.54002607	     26.34698840	     90.47469923	      1.09074329	     -8.35153891	      7.99867521	      7.89058386	     93.14404599
     29.86666670	     -6.00660666	      0.09989241	     -2.06617228	      0.87879719	      0.78779013	      0.71229337	     -9.83805967	      1.22061466	      1.20502585	     10.87430459	      0.18979242	     20.38000053	      2.51936051	     -7.49999987	     33.30771208	     -0.46340270	     -0.88348796	      7.26700706	      0.12683320	      7.27591078	      1.50481463	     -7.49999987	      3.31476588	      0.86998546	      7.50049650	     14.12949453	    -18.55495137	      9.42287668	     25.99928410	     90.71994876	      1.34830099	     -8.47287343	      7.63420008	      7.69151594	     93.15670833
     29.88333330	     -6.12684668	      0.60883301	     -2.07574547	      0.88281707	      0.78728243	      0.70996095	     -9.86835443	      0.44457017	      1.58384954	     12.89040615	      0.22498003	     19.25653395	      0.87737913	     -7.49999987	     33.43692736	      0.20406707	     -0.81747941	      9.71925968	      0.16963308	      5.54955163	     -0.03585048	     -7.49999987	      3.59686072	      0.16305799	      7.54599053	     14.02702155	    -18.06726358	      9.28570552	     25.57231826	     91.08692835	      1.51181903	     -8.58548285	      7.13555995	      7.54271936	     93.17172500
     29.90000000	     -6.42588337	      1.11157120	     -1.97337408	      0.88886282	      0.78681535	      0.70653506	     -9.12385736	     -0.38751543	      1.67998401	     16.08050995	      0.28065784	     17.12475262	     -0.96754014	     -7.49999987	     33.68642087	      0.91092201	     -0.66373582	     12.35465207	      0.21562936	      4.14892217	     -1.39011505	     -7.49999987	      4.23515541	     -0.48098370	      7.40475077	     13.60966292	    -17.55572817	      9.21592362	     25.21326375	     91.39397190	      1.45296843	     -8.70443757	      6.59451019	      7.56011459	     93.01643709
     29.91666670	     -6.59433924	      1.64088677	     -1.76832607	      0.89577849	      0.78810966	      0.70252605	     -7.91111511	     -1.34688207	      1.38266265	     20.44344300	      0.35680539	     13.80175595	     -2.72325228	     -7.49999987	     33.61470755	      1.70736651	     -0.46107600	     14.86666378	      0.25947223	      3.34931369	     -2.44614459	     -7.49999987	      4.75787093	     -1.18617857	      7.06365286	     12.95742875	    -17.03204541	      9.24358140	     24.84609495	     91.76922604	      1.32596871	     -8.81023792	      6.26012236	      7.53541023	     93.02226026
     29.93333330	     -6.70375615	      2.18444559	     -1.35214931	      0.90241981	      0.79066664	      0.69874994	     -6.21218358	     -2.38628841	      0.67731294	     25.74885060	      0.44940222	      8.83719142	     -4.67315519	     -7.49999987	     33.22879941	      2.67162433	     -0.03519832	     17.01110170	      0.29689973	      3.27215492	     -3.27271478	     -7.49999987	      5.36503730	     -1.93154569	      6.48113122	     12.04296001	    -16.42433815	      9.31164157	     24.31929883	     92.35193310	      1.18144095	     -8.94327007	      6.02412378	      7.48059546	     93.18126430
     29.95000000	     -6.58616251	      2.80406111	     -0.93943258	      0.90789399	      0.79444418	      0.69567893	     -4.21489893	     -3.59904983	     -0.11217939	     31.72827458	      0.55376286	      2.80594811	     -6.39867852	     -7.49999987	     32.29720373	      3.76365907	      0.43622417	     18.61909540	      0.32496452	      3.87619455	     -3.73022848	     -7.49999987	      5.61289190	     -2.79681285	      5.77477574	     11.04692740	    -15.83869444	      9.38259421	     23.77068733	     93.08326135	      1.06520362	     -9.14857690	      6.00162175	      7.54222290	     93.47620356
     29.96666670	     -6.32874655	      3.45802765	     -0.74890624	      0.91177142	      0.79984653	      0.69357176	     -1.85794380	     -4.86737853	     -0.59082627	     37.98792638	      0.66301439	     -3.36993254	     -7.96042640	     -7.49999987	     30.88602856	      4.81346176	      0.76322901	     19.56305888	      0.34143979	      4.73712867	     -4.05678854	     -7.49999987	      5.68700250	     -3.64303944	      5.22753475	     10.12430140	    -15.12395107	      9.39426883	     22.80330488	     92.82638490	      1.14895556	     -9.32662180	      6.77226656	      7.32307983	     92.66882319
     29.98333330	     -5.82817501	      4.03967641	     -0.71837087	      0.91348795	      0.80610490	      0.69208398	      0.53868686	     -5.93139004	     -0.64350486	     43.90556557	      0.76629668	     -8.67271906	     -9.76968977	     -7.49999987	     28.91843131	      5.74698782	      1.06981131	     19.85084010	      0.34646252	      5.69571772	     -4.20783718	     -7.49999987	      5.33260679	     -4.33809241	      4.52516893	      9.17949211	    -14.55686436	      9.64898033	     22.41966525	     93.79562450	      0.97247615	     -9.58423484	      7.82653687	      7.81970464	     92.98248768
     30.00000000	     -5.68718588	      4.27625799	     -0.95790016	      0.91250627	      0.80954155	      0.69097424	      3.65889895	     -6.40917657	     -0.20951352	     49.28143467	      0.86012330	    -12.26426659	    -11.53070943	     -7.49999987	     27.26238906	      6.17467142	      1.18670930	     19.76271054	      0.34492437	      6.46402601	     -4.25994789	     -7.49999987	      5.17370183	     -4.54962097	      4.25818519	      8.10019739	    -14.19866912	      9.74794042	     21.98037551	     94.66019106	      1.04297291	     -9.69476036	      8.13466520	      8.25778483	     93.49196525
